<?xml version="1.0" encoding="UTF-8"?>
<svg xmlns="http://www.w3.org/2000/svg" width="30cm" height="30cm" version="1.1" viewBox="0 0 850.39 850.39">
  <defs>
    <style>
      .cls-1 {
        font-size: 32.72px;
      }

      .cls-1, .cls-2 {
        font-family: CalistoMT, 'Calisto MT';
      }

      .cls-1, .cls-2, .cls-3 {
        fill: #010101;
      }

      .cls-4 {
        stroke-width: 4px;
      }

      .cls-4, .cls-5 {
        fill: none;
      }

      .cls-4, .cls-5, .cls-6 {
        stroke: #1e1e1c;
        stroke-miterlimit: 10;
      }

      .cls-2 {
        font-size: 50.14px;
      }

      .cls-5 {
        stroke-width: 1.5px;
      }

      .cls-6 {
        fill: #1e1e1c;
        stroke-linecap: round;
      }

      .cls-3 {
        font-family: AGaramondPro-Regular, 'Adobe Garamond Pro';
        font-size: 168.89px;
        letter-spacing: -.01em;
      }
    </style>
  </defs>
  <!-- Generator: Adobe Illustrator 28.7.10, SVG Export Plug-In . SVG Version: 1.2.0 Build 236)  -->
  <g>
    <g id="Capa_1">
      <g>
        <text/>
        <path class="cls-4" d="M107.95,484.06c-5.03-21.15-31.39-140.89,42.77-253.16C243.11,91.05,408.1,89.04,424.16,89.12c120.31.62,236.78,67.88,292.46,177.48,50.41,99.24,31.95,195.23,25,224.97"/>
        <path class="cls-5" d="M127.95,481.98c-4.73-22.44-24.3-127.28,39.99-229.14,83.14-131.7,232.5-141.15,243.3-141.65,108.33-4.96,208.16,48.96,265.8,133.32,73.17,107.09,50.24,222.11,45.83,242.47"/>
        <text class="cls-3" transform="translate(190.09 444.21) scale(.93 1)"><tspan x="0" y="0">BOCHI</tspan></text>
        <text class="cls-2" transform="translate(109.03 497.63) rotate(69.72) scale(.98 1)"><tspan x="0" y="0">A</tspan></text>
        <text class="cls-2" transform="translate(123.75 537.57) rotate(61.87) scale(.98 1)"><tspan x="0" y="0">M</tspan></text>
        <text class="cls-2" transform="translate(149.02 583.17) rotate(54.52) scale(.98 1)"><tspan x="0" y="0">B</tspan></text>
        <text class="cls-2" transform="translate(169.78 611.57) rotate(49.81) scale(.98 1)"><tspan x="0" y="0">I</tspan></text>
        <text class="cls-2" transform="translate(183.45 628.02) rotate(44.99) scale(.98 1)"><tspan x="0" y="0">E</tspan></text>
        <text class="cls-2" transform="translate(209.67 654.18) rotate(38.18) scale(.98 1)"><tspan x="0" y="0">N</tspan></text>
        <text class="cls-2" transform="translate(244.72 681.15) rotate(31.37) scale(.98 1)"><tspan x="0" y="0">T</tspan></text>
        <text class="cls-2" transform="translate(275.86 700.05) rotate(24.66) scale(.98 1)"><tspan x="0" y="0">A</tspan></text>
        <text class="cls-2" transform="translate(314.4 717.38) rotate(17.57) scale(.98 1)"><tspan x="0" y="0">C</tspan></text>
        <text class="cls-2" transform="translate(351.76 728.61) rotate(12.27) scale(.98 1)"><tspan x="0" y="0">I</tspan></text>
        <text class="cls-2" transform="translate(372.93 733.57) rotate(6.59) scale(.98 1)"><tspan x="0" y="0">Ò</tspan></text>
        <text class="cls-2" transform="translate(416.14 738.25) rotate(-1.08) scale(.98 1)"><tspan x="0" y="0">N</tspan></text>
        <text class="cls-1" transform="translate(460.19 736.74) rotate(-7.65) scale(.98 1)"><tspan x="0" y="0">&amp;</tspan></text>
        <text class="cls-2" transform="translate(488.85 733.36) rotate(-14.72) scale(.98 1)"><tspan x="0" y="0">M</tspan></text>
        <text class="cls-2" transform="translate(539.47 719.36) rotate(-23.11) scale(.98 1)"><tspan x="0" y="0">O</tspan></text>
        <text class="cls-2" transform="translate(578.98 701.99) rotate(-29.92) scale(.98 1)"><tspan x="0" y="0">B</tspan></text>
        <text class="cls-2" transform="translate(609.29 684.05) rotate(-34.74) scale(.98 1)"><tspan x="0" y="0">I</tspan></text>
        <text class="cls-2" transform="translate(626.97 671.99) rotate(-39.56) scale(.98 1)"><tspan x="0" y="0">L</tspan></text>
        <text class="cls-2" transform="translate(654.21 648.91) rotate(-44.35) scale(.98 1)"><tspan x="0" y="0">I</tspan></text>
        <text class="cls-2" transform="translate(669.84 634.04) rotate(-49.63) scale(.98 1)"><tspan x="0" y="0">A</tspan></text>
        <text class="cls-2" transform="translate(696.9 601.72) rotate(-56.44) scale(.98 1)"><tspan x="0" y="0">R</tspan></text>
        <text class="cls-2" transform="translate(717.95 569.02) rotate(-61.45) scale(.98 1)"><tspan x="0" y="0">I</tspan></text>
        <text class="cls-2" transform="translate(728.56 550.19) rotate(-66.78) scale(.98 1)"><tspan x="0" y="0">O</tspan></text>
        <path class="cls-6" d="M346.14,292.71l-18.63,18.78c-.57.57-.11,1.46.75,1.46,1.14-1.04,7.85-7,18.63-7s17.5,5.96,18.63,7c.39,0,.75-.2.91-.52.15-.29.12-.66-.16-.94l-18.63-18.78c-.4-.4-1.11-.4-1.5,0Z"/>
      </g>
    </g>
  </g>
</svg>